# xmcd
#
# Track frame offsets: 
#        150
#        43728
#        79466
#        107616
#        137420
#        169335
#        189297
#        204848
#
# Disc length: 4440 seconds
#
# Revision: 0
# Processed by: cddbd v1.5.2PL0 Copyright (c) Steve Scherf et al.
# Submitted via: ExactAudioCopy v0.99pb4
#
DISCID=64115608
DTITLE=Kraftwerk - Trans-Europe Express (Remastered)
DYEAR=1977
DGENRE=Electronic
TTITLE0=Europe Endless
TTITLE1=The Hall of Mirrors
TTITLE2=Showroom Dummies
TTITLE3=Trans-Europe Express
TTITLE4=Metal on Metal
TTITLE5=Franz Schubert
TTITLE6=Endless Endless
TTITLE7=Copy Protection
EXTD=
EXTT0=
EXTT1=
EXTT2=
EXTT3=
EXTT4=
EXTT5=
EXTT6=
EXTT7=
PLAYORDER=
